<?xml version="1.0" encoding="utf-8"?>
<!-- Generator: Adobe Illustrator 25.2.1, SVG Export Plug-In . SVG Version: 6.00 Build 0)  -->
<svg version="1.1" id="Layer_1" xmlns="http://www.w3.org/2000/svg" xmlns:xlink="http://www.w3.org/1999/xlink" x="0px" y="0px"
	 viewBox="0 0 51.9 51.9" style="enable-background:new 0 0 51.9 51.9;" xml:space="preserve">
<style type="text/css">
	.st0{fill:none;stroke:#FFFFFF;stroke-linecap:round;stroke-linejoin:round;stroke-miterlimit:10;}
</style>
<g id="Info">
	<path id="XMLID_16_" class="st0" d="M26,37.7L26,37.7c-7.1,7.2-13.3,0-13.3,0c-1.8,1.8-3.4,3-6.5,3.3"/>
	<path id="XMLID_2_" class="st0" d="M39.3,37.7c1.8,1.8,3.4,3,6.5,3.3"/>
	<path id="XMLID_4_" class="st0" d="M39.3,37.7"/>
	<path id="XMLID_3_" class="st0" d="M36.2,40.1"/>
	<path id="XMLID_15_" class="st0" d="M26,37.7L26,37.7c4,4,7.6,3.6,10.1,2.4"/>
</g>
<g id="Strokes_-_Design_Layer">
</g>
<g id="Fills_-_Design_Layer">
	<path class="st0" d="M13.6,4.1c3.9-2.2,8.5-3.4,13.4-3.2C40.8,1.4,51.6,13.1,51,27S38.8,51.6,24.9,51S0.3,38.8,0.9,24.9
		C1.2,18.1,4.2,12,8.8,7.7"/>
	<path class="st0" d="M12.7,4.7"/>
	<path class="st0" d="M8,8.4"/>
	<line class="st0" x1="4.3" y1="28" x2="14.7" y2="18.1"/>
	<path class="st0" d="M4.3,28"/>
	<path class="st0" d="M1.4,30.7"/>
	<line class="st0" x1="26.1" y1="28.7" x2="14.7" y2="18.1"/>
	<line class="st0" x1="2.5" y1="34.4" x2="14.7" y2="23.1"/>
	<polyline class="st0" points="14.7,23.1 26.1,33.7 45.9,33.7 	"/>
	<circle class="st0" cx="33.8" cy="17.3" r="6"/>
	<path class="st0" d="M27.3,24.3c-3.9-3.6-4.1-9.7-0.5-13.6s9.7-4.1,13.6-0.5s4.1,9.7,0.5,13.6S31.2,27.9,27.3,24.3z"/>
	<circle class="st0" cx="33.8" cy="17.3" r="6"/>
	<circle class="st0" cx="14.7" cy="10.4" r="2.4"/>
	<line class="st0" x1="22.1" y1="6.4" x2="26.8" y2="10.7"/>
	<line class="st0" x1="41.2" y1="24.1" x2="45.9" y2="28.4"/>
</g>
</svg>
